<?xml version="1.0" encoding="UTF-8" standalone="no"?>
<svg
   id="Logo"
   width="142.67186mm"
   height="141.38052mm"
   viewBox="0 0 404.42417 400.76368"
   version="1.1"
   sodipodi:docname="Rosatom.svg"
   inkscape:version="1.1.2 (b8e25be833, 2022-02-05)"
   xmlns:inkscape="http://www.inkscape.org/namespaces/inkscape"
   xmlns:sodipodi="http://sodipodi.sourceforge.net/DTD/sodipodi-0.dtd"
   xmlns:xlink="http://www.w3.org/1999/xlink"
   xmlns="http://www.w3.org/2000/svg"
   xmlns:svg="http://www.w3.org/2000/svg">
  <sodipodi:namedview
     id="namedview50"
     pagecolor="#ffffff"
     bordercolor="#666666"
     borderopacity="1.0"
     inkscape:pageshadow="2"
     inkscape:pageopacity="0.0"
     inkscape:pagecheckerboard="0"
     inkscape:document-units="mm"
     showgrid="false"
     inkscape:zoom="1.5551559"
     inkscape:cx="269.74788"
     inkscape:cy="473.26446"
     inkscape:window-width="1920"
     inkscape:window-height="1017"
     inkscape:window-x="-8"
     inkscape:window-y="-8"
     inkscape:window-maximized="1"
     inkscape:current-layer="Logo" />
  <defs
     id="defs13">
    <radialGradient
       id="radial-gradient"
       cx="192.67312"
       cy="125.14999"
       r="41.90109"
       gradientUnits="userSpaceOnUse">
      <stop
         offset="0"
         stop-color="#4896d2"
         id="stop2" />
      <stop
         offset="1"
         stop-color="#1a2165"
         id="stop4" />
    </radialGradient>
    <linearGradient
       id="linear-gradient"
       x1="101.7061"
       y1="121.70716"
       x2="172.17643"
       y2="13.19237"
       xlink:href="#radial-gradient" />
    <linearGradient
       id="linear-gradient-2"
       x1="129.8345"
       y1="-3.35432"
       x2="304.89283"
       y2="67.37383"
       xlink:href="#radial-gradient" />
    <linearGradient
       id="linear-gradient-3"
       x1="-2903.39062"
       y1="-3282.6878"
       x2="-2832.92302"
       y2="-3391.19839"
       gradientTransform="rotate(-120.00073,-317.57482,-2427.9041)"
       xlink:href="#radial-gradient" />
    <linearGradient
       id="linear-gradient-4"
       x1="-2875.26818"
       y1="-3407.74514"
       x2="-2700.19219"
       y2="-3337.00985"
       gradientTransform="rotate(-120.00073,-317.57482,-2427.9041)"
       xlink:href="#radial-gradient" />
    <linearGradient
       id="linear-gradient-5"
       x1="1547.68612"
       y1="-4183.19893"
       x2="1618.15806"
       y2="-4291.71619"
       gradientTransform="rotate(120.00073,-317.49117,-2428.0914)"
       xlink:href="#radial-gradient" />
    <linearGradient
       id="linear-gradient-6"
       x1="1575.81401"
       y1="-4308.26196"
       x2="1750.88218"
       y2="-4237.52983"
       gradientTransform="rotate(120.00073,-317.49117,-2428.0914)"
       xlink:href="#radial-gradient" />
    <radialGradient
       inkscape:collect="always"
       xlink:href="#radial-gradient"
       id="radialGradient869"
       gradientUnits="userSpaceOnUse"
       cx="192.67312"
       cy="125.14999"
       r="41.90109" />
  </defs>
  <g
     id="g29"
     transform="matrix(1.4219879,0,0,1.3062436,-85.332214,0.4823235)"
     style="stroke-width:2.13449;stroke-miterlimit:4;stroke-dasharray:none">
    <path
       d="m 222.151,119.6322 a 29.76429,29.76429 0 1 0 2.1811,42.0493 29.7893,29.7893 0 0 0 -2.1811,-42.0493 z"
       fill="url(#radial-gradient)"
       id="path15"
       style="fill:url(#radialGradient869);stroke-width:2.13449;stroke-miterlimit:4;stroke-dasharray:none" />
    <path
       d="m 116.96419,28.5017 a 142.2138,142.2138 0 0 0 -44.8627,56.9754 c 11.7775,2.903 47.0394,14.3786 63.2173,58.0584 4.8661,-1.5857 15.3552,-7.6988 22.6329,-31.3004 9.759,-31.599 28.2721,-61.9917 52.2801,-72.1969 -23.9411,-23.686 -55.4846,-29.2634 -93.2676,-11.5365 z"
       fill="url(#linear-gradient)"
       id="path17"
       style="fill:url(#linear-gradient);stroke-width:2.13449;stroke-miterlimit:4;stroke-dasharray:none" />
    <path
       d="m 311.36359,51.35 0.007,-0.0082 a 141.72243,141.72243 0 0 0 -194.407,-22.8395 c 52.4527,-24.6102 92.8782,-4.3082 117.6338,47.007 39.4325,7.0723 66.2128,-12.5483 76.7662,-24.1593 z"
       fill="url(#linear-gradient-2)"
       id="path19"
       style="fill:url(#linear-gradient-2);stroke-width:2.13449;stroke-miterlimit:4;stroke-dasharray:none" />
    <path
       d="m 146.79349,272.1639 a 142.19022,142.19022 0 0 0 71.7692,10.3676 c -3.3746,-11.6519 -11.0681,-47.9299 18.6673,-83.7815 -3.8058,-3.4214 -14.3444,-9.4497 -38.4211,-3.9518 -32.2425,7.3471 -67.8178,6.5094 -88.6593,-9.1815 -8.5403,32.5784 2.4019,62.6866 36.6439,86.5472 z"
       fill="url(#linear-gradient-3)"
       id="path21"
       style="fill:url(#linear-gradient-3);stroke-width:2.13449;stroke-miterlimit:4;stroke-dasharray:none" />
    <path
       d="m 69.37939,92.3708 -0.0103,-0.0016 a 141.7457,141.7457 0 0 0 77.425,179.795 c -47.5373,-33.1241 -50.1696,-78.2873 -18.1106,-125.3859 -13.592,-37.6886 -43.9731,-51.0725 -59.3041,-54.4075 z"
       fill="url(#linear-gradient-4)"
       id="path23"
       style="fill:url(#linear-gradient-4);stroke-width:2.13449;stroke-miterlimit:4;stroke-dasharray:none" />
    <path
       d="m 342.87879,124.4977 a 142.21694,142.21694 0 0 0 -26.9065,-67.343 c -8.4025,8.7488 -35.9709,33.5512 -81.8846,25.723 -1.06,5.0072 -1.0107,17.1485 15.7883,35.2525 22.4837,24.2517 39.5458,55.4821 36.3791,81.3781 32.4814,-8.8923 53.083,-33.4234 56.6237,-75.0106 z"
       fill="url(#linear-gradient-5)"
       id="path25"
       style="fill:url(#linear-gradient-5);stroke-width:2.13449;stroke-miterlimit:4;stroke-dasharray:none" />
    <path
       d="m 225.89379,281.4425 0.004,0.009 a 141.7409,141.7409 0 0 0 116.981,-156.9545 c -4.9151,57.7341 -42.7082,82.5955 -99.5229,78.3787 -25.8405,30.6162 -22.2401,63.6211 -17.4621,78.5668 z"
       fill="url(#linear-gradient-6)"
       id="path27"
       style="fill:url(#linear-gradient-6);stroke-width:2.13449;stroke-miterlimit:4;stroke-dasharray:none" />
  </g>
</svg>
