<svg width="624" height="285" viewBox="0 0 624 285" fill="none" xmlns="http://www.w3.org/2000/svg">
<path d="M164.529 162.54C153.509 174.75 134.689 175.71 122.479 164.69C110.269 153.68 109.289 134.84 120.289 122.63C131.309 110.42 150.139 109.47 162.349 120.48C174.559 131.5 175.539 150.33 164.529 162.54Z" fill="url(#paint0_radial_208_11)"/>
<path d="M57.1696 29.3603C37.6896 44.0503 22.1196 63.6603 12.3096 86.3303C24.0896 89.2303 59.3496 100.71 75.5296 144.39C80.3996 142.8 90.8895 136.69 98.1595 113.09C107.92 81.4903 126.43 51.1003 150.44 40.8903C126.49 17.2103 94.9496 11.6303 57.1696 29.3603Z" fill="url(#paint1_linear_208_11)"/>
<path d="M251.569 52.2104C251.569 52.2004 251.569 52.2004 251.569 52.2104C225.579 20.8404 186.329 0.860352 142.419 0.860352C110.419 0.860352 80.8889 11.4704 57.1689 29.3604C109.619 4.75035 150.049 25.0503 174.799 76.3703C214.229 83.4403 241.009 63.8204 251.569 52.2104Z" fill="url(#paint2_linear_208_11)"/>
<path d="M86.999 273.02C109.459 282.55 134.229 286.23 158.769 283.39C155.399 271.74 147.699 235.46 177.439 199.61C173.629 196.19 163.099 190.16 139.019 195.66C106.779 203.01 71.199 202.17 50.359 186.48C41.809 219.05 52.749 249.16 86.999 273.02Z" fill="url(#paint3_linear_208_11)"/>
<path d="M9.57935 93.2305H9.56937C-4.59063 131.42 -2.27063 175.41 19.6894 213.44C35.6894 241.16 59.6394 261.42 86.9994 273.02C39.4594 239.9 36.8294 194.73 68.8894 147.63C55.2894 109.95 24.9094 96.5605 9.57935 93.2305Z" fill="url(#paint4_linear_208_11)"/>
<path d="M283.08 125.35C280.1 101.13 270.9 77.8503 256.17 58.0103C247.77 66.7603 220.2 91.5603 174.29 83.7303C173.23 88.7403 173.28 100.88 190.08 118.98C212.56 143.23 229.63 174.46 226.46 200.36C258.94 191.47 279.54 166.94 283.08 125.35Z" fill="url(#paint5_linear_208_11)"/>
<path d="M166.1 282.3C206.26 275.48 243.18 251.47 265.14 213.44C281.14 185.72 286.72 154.85 283.08 125.36C278.16 183.09 240.37 207.96 183.56 203.74C157.72 234.35 161.32 267.35 166.1 282.3Z" fill="url(#paint6_linear_208_11)"/>
<path d="M330.26 30.6201H327.43V254.56H330.26V30.6201Z" fill="#414042"/>
<path d="M391.79 129.75H386.26V91.9203H373.55V86.7603H404.5V91.9203H391.79V129.75Z" fill="#414042"/>
<path d="M433.36 111.08H414.32V106.17H433.36V111.08Z" fill="#414042"/>
<path d="M460.14 110.34H456.09V129.75H450.56V86.7603H456.09V106.29H459.71L474.88 86.7603H481.94L465.42 106.54C470.15 107.34 471.5 113.97 482.62 129.76H475.62C464.37 113.35 465.36 110.34 460.14 110.34Z" fill="#414042"/>
<path d="M489.92 108.26C489.92 94.5004 497.84 86.1504 509.21 86.1504C521.98 86.1504 528.86 95.2404 528.86 108.26C528.86 122.88 520.63 130.37 509.39 130.37C497.47 130.37 489.92 121.89 489.92 108.26ZM522.96 108.26C522.96 96.4704 517.68 91.3104 509.2 91.3104C501.65 91.3104 495.81 96.7804 495.81 108.26C495.81 119.56 501.46 125.21 509.94 125.21C517.99 125.21 522.96 119.37 522.96 108.26Z" fill="#414042"/>
<path d="M586.209 129.75H580.679L578.039 96.1602L567.169 129.75H561.399L550.589 96.2802L547.889 129.75H542.359L546.049 86.7603H552.809L564.419 123.73L575.779 86.7603H582.539L586.209 129.75Z" fill="#414042"/>
<path d="M377.969 195.77H373.539V161.34H383.669C391.489 161.34 396.409 164.59 396.409 172.06C396.409 179.19 391.489 183.08 383.279 183.08H377.969V195.77V195.77ZM377.969 178.95H383.279C388.739 178.95 391.689 176.74 391.689 172.16C391.689 167.44 388.739 165.47 383.279 165.47H377.969V178.95Z" fill="#035FA2"/>
<path d="M405.749 178.56C405.749 167.54 412.089 160.86 421.189 160.86C431.419 160.86 436.929 168.14 436.929 178.56C436.929 190.27 430.339 196.26 421.339 196.26C411.799 196.26 405.749 189.48 405.749 178.56ZM432.209 178.56C432.209 169.12 427.979 164.99 421.189 164.99C415.139 164.99 410.469 169.37 410.469 178.56C410.469 187.61 414.989 192.13 421.779 192.13C428.229 192.13 432.209 187.46 432.209 178.56Z" fill="#035FA2"/>
<path d="M471.95 194.84C470.08 195.73 467.43 196.27 464.43 196.27C453.71 196.27 447.27 189.58 447.27 179.01C447.27 167.31 453.86 160.86 464.14 160.86C468.07 160.86 470.39 161.55 472.01 162.19L471.169 166.08C469.009 165.29 466.74 165 464.58 165C456.42 165 451.99 169.72 451.99 178.57C451.99 187.13 456.96 192.14 465.02 192.14C467.18 192.14 469.499 191.75 471.219 190.91L471.95 194.84Z" fill="#035FA2"/>
<path d="M502.879 186.581H488.179L484.839 195.781H480.359L493.489 161.351H497.919L510.799 195.781H506.179L502.879 186.581ZM489.599 182.541H501.449L495.699 166.361H495.499L489.599 182.541Z" fill="#035FA2"/>
<path d="M528.84 195.771H524.409V165.481H514.229V161.351H539.02V165.481H528.84V195.771V195.771Z" fill="#035FA2"/>
<path d="M546.389 178.56C546.389 167.54 552.729 160.86 561.829 160.86C572.059 160.86 577.569 168.14 577.569 178.56C577.569 190.27 570.979 196.26 561.979 196.26C552.439 196.26 546.389 189.48 546.389 178.56ZM572.849 178.56C572.849 169.12 568.619 164.99 561.829 164.99C555.779 164.99 551.109 169.37 551.109 178.56C551.109 187.61 555.629 192.13 562.419 192.13C568.869 192.13 572.849 187.46 572.849 178.56Z" fill="#035FA2"/>
<path d="M623.009 195.77H618.579L616.469 168.87L607.769 195.77H603.149L594.489 168.97L592.329 195.77H587.899L590.849 161.34H596.259L605.549 190.95L614.649 161.34H620.059L623.009 195.77Z" fill="#035FA2"/>
<defs>
<radialGradient id="paint0_radial_208_11" cx="0" cy="0" r="1" gradientUnits="userSpaceOnUse" gradientTransform="translate(132.813 125.947) scale(41.9066)">
<stop stop-color="#4495D1"/>
<stop offset="1" stop-color="#15256D"/>
</radialGradient>
<linearGradient id="paint1_linear_208_11" x1="41.9085" y1="122.563" x2="112.379" y2="14.0485" gradientUnits="userSpaceOnUse">
<stop stop-color="#4495D1"/>
<stop offset="1" stop-color="#15256D"/>
</linearGradient>
<linearGradient id="paint2_linear_208_11" x1="70.0361" y1="-2.49815" x2="245.094" y2="68.2298" gradientUnits="userSpaceOnUse">
<stop stop-color="#4495D1"/>
<stop offset="1" stop-color="#15256D"/>
</linearGradient>
<linearGradient id="paint3_linear_208_11" x1="175.319" y1="239.673" x2="46.1183" y2="232.903" gradientUnits="userSpaceOnUse">
<stop stop-color="#4495D1"/>
<stop offset="1" stop-color="#15256D"/>
</linearGradient>
<linearGradient id="paint4_linear_208_11" x1="52.9618" y1="277.846" x2="26.6814" y2="90.8687" gradientUnits="userSpaceOnUse">
<stop stop-color="#4495D1"/>
<stop offset="1" stop-color="#15256D"/>
</linearGradient>
<linearGradient id="paint5_linear_208_11" x1="210.033" y1="65.5186" x2="268.772" y2="180.803" gradientUnits="userSpaceOnUse">
<stop stop-color="#4495D1"/>
<stop offset="1" stop-color="#15256D"/>
</linearGradient>
<linearGradient id="paint6_linear_208_11" x1="304.271" y1="152.407" x2="155.486" y2="268.648" gradientUnits="userSpaceOnUse">
<stop stop-color="#4495D1"/>
<stop offset="1" stop-color="#15256D"/>
</linearGradient>
</defs>
</svg>
